<svg xmlns="http://www.w3.org/2000/svg" xmlns:xlink="http://www.w3.org/1999/xlink" width="213" height="99" viewBox="0 0 213 99">
  <defs>
    <clipPath id="clip-path">
      <rect id="Rectangle_13" data-name="Rectangle 13" width="213" height="99" fill="#b9b9b9" stroke="#707070" stroke-width="1"/>
    </clipPath>
    <linearGradient id="linear-gradient" x1="0.021" y1="7.861" x2="0.76" y2="7.702" gradientUnits="objectBoundingBox">
      <stop offset="0" stop-color="#60bcc1"/>
      <stop offset="1" stop-color="#50d1d9"/>
    </linearGradient>
    <linearGradient id="linear-gradient-2" x1="0.021" y1="-2.16" x2="0.99" y2="-2.25" xlink:href="#linear-gradient"/>
    <linearGradient id="linear-gradient-3" x1="0.02" y1="1.098" x2="0.84" y2="1.138" xlink:href="#linear-gradient"/>
  </defs>
  <g id="Mask_Group_1" data-name="Mask Group 1" clip-path="url(#clip-path)">
    <g id="astrant" transform="translate(0.35 32.247)">
      <g id="Group_1" data-name="Group 1" transform="translate(45.982 4.99)">
        <path id="Path_2" data-name="Path 2" d="M49.382,25.811,42.4,25.074A7.718,7.718,0,0,1,43.536,22.2a6.311,6.311,0,0,1,2.139-1.83,8.363,8.363,0,0,1,2.78-.855,21.24,21.24,0,0,1,3.8-.309,28.881,28.881,0,0,1,5.3.38,6.866,6.866,0,0,1,3.327,1.545,5.509,5.509,0,0,1,1.473,2.281,8.378,8.378,0,0,1,.547,2.828v8.436a9.974,9.974,0,0,0,.166,2.115,9.928,9.928,0,0,0,.737,1.949H56.939a7.537,7.537,0,0,1-.547-1.117,8.292,8.292,0,0,1-.261-1.212,8.96,8.96,0,0,1-2.852,1.972,11.975,11.975,0,0,1-4.515.784,7.43,7.43,0,0,1-5.18-1.592,4.994,4.994,0,0,1-1.782-3.9,5.149,5.149,0,0,1,1.283-3.588A8.693,8.693,0,0,1,47.79,28c2.757-.547,4.515-.927,5.347-1.164a23.861,23.861,0,0,0,2.59-.879,2.6,2.6,0,0,0-.547-1.877,2.808,2.808,0,0,0-1.949-.547,5.225,5.225,0,0,0-2.709.57A3.186,3.186,0,0,0,49.382,25.811Zm6.345,3.85a32.092,32.092,0,0,1-3.137.951,7.5,7.5,0,0,0-2.828,1.164,1.889,1.889,0,0,0-.618,1.354,1.782,1.782,0,0,0,.594,1.4,2.62,2.62,0,0,0,1.782.547,4.543,4.543,0,0,0,2.281-.594,3.676,3.676,0,0,0,1.5-1.45,4.929,4.929,0,0,0,.451-2.21V29.661Z" transform="translate(-41.802 -12.337)" fill="#50d1d9"/>
        <path id="Path_3" data-name="Path 3" d="M67.228,33.417l7.272-.689a3.146,3.146,0,0,0,3.422,2.4,3.772,3.772,0,0,0,2.281-.618,1.355,1.355,0,0,0,.618-1.164,1.337,1.337,0,0,0-.832-1.212,15.148,15.148,0,0,0-3.137-.76,33.6,33.6,0,0,1-5.3-1.236,5.479,5.479,0,0,1-2.5-1.925,4.911,4.911,0,0,1-1.022-3.065,4.992,4.992,0,0,1,1.093-3.256,6.626,6.626,0,0,1,3.018-2.044,15.969,15.969,0,0,1,5.157-.665,17.389,17.389,0,0,1,5.038.523,6.454,6.454,0,0,1,2.709,1.616,8.2,8.2,0,0,1,1.806,2.97l-6.939.689a2.373,2.373,0,0,0-.9-1.354,3.667,3.667,0,0,0-2.091-.57,2.842,2.842,0,0,0-1.806.451,1.29,1.29,0,0,0-.57,1.069,1.142,1.142,0,0,0,.713,1.069,11.641,11.641,0,0,0,3.137.642,22.945,22.945,0,0,1,5.442,1.141,6.157,6.157,0,0,1,2.733,2.091,5.21,5.21,0,0,1,.951,2.994,5.909,5.909,0,0,1-1,3.208,6.754,6.754,0,0,1-3.137,2.5,15.025,15.025,0,0,1-5.846.927c-3.493,0-5.965-.5-7.462-1.5A6.761,6.761,0,0,1,67.228,33.417Z" transform="translate(-39.259 -12.34)" fill="#50d1d9"/>
        <path id="Path_4" data-name="Path 4" d="M101.259,12.962v7.272h4.04V25.6h-4.04v6.772a3.489,3.489,0,0,0,.238,1.616,1.354,1.354,0,0,0,1.259.618,8.122,8.122,0,0,0,2.257-.475l.547,5.062a23.208,23.208,0,0,1-5.062.594,9.144,9.144,0,0,1-4.04-.689,4.458,4.458,0,0,1-1.925-2.139,12.754,12.754,0,0,1-.618-4.634V25.6H91.207v-5.37h2.709V16.74Z" transform="translate(-36.861 -12.962)" fill="#50d1d9"/>
        <path id="Path_5" data-name="Path 5" d="M110.7,19.611h6.844v3.137a7.552,7.552,0,0,1,2.044-2.8,4.23,4.23,0,0,1,2.59-.76,7.808,7.808,0,0,1,3.541,1l-2.258,5.2a5.822,5.822,0,0,0-2.044-.547,2.556,2.556,0,0,0-2.234,1.188c-.76,1.117-1.141,3.208-1.141,6.25v6.44h-7.367V19.611Z" transform="translate(-34.915 -12.34)" fill="#50d1d9"/>
        <path id="Path_6" data-name="Path 6" d="M136.269,25.811l-6.986-.737a7.718,7.718,0,0,1,1.141-2.875,6.311,6.311,0,0,1,2.139-1.83,8.363,8.363,0,0,1,2.78-.855,21.24,21.24,0,0,1,3.8-.309,28.88,28.88,0,0,1,5.3.38,6.659,6.659,0,0,1,3.327,1.545,5.509,5.509,0,0,1,1.473,2.281,8.378,8.378,0,0,1,.547,2.828v8.436a9.974,9.974,0,0,0,.166,2.115,9.929,9.929,0,0,0,.737,1.949h-6.868a7.538,7.538,0,0,1-.547-1.117,8.292,8.292,0,0,1-.261-1.212,8.96,8.96,0,0,1-2.852,1.972,11.975,11.975,0,0,1-4.515.784,7.43,7.43,0,0,1-5.18-1.592,4.994,4.994,0,0,1-1.782-3.9,5.149,5.149,0,0,1,1.283-3.588A8.693,8.693,0,0,1,134.677,28c2.757-.547,4.515-.927,5.347-1.164a23.86,23.86,0,0,0,2.59-.879,2.6,2.6,0,0,0-.547-1.877,2.836,2.836,0,0,0-1.972-.547,5.225,5.225,0,0,0-2.709.57A3.3,3.3,0,0,0,136.269,25.811Zm6.345,3.85a32.092,32.092,0,0,1-3.137.951,7.5,7.5,0,0,0-2.828,1.164,1.889,1.889,0,0,0-.618,1.354,1.782,1.782,0,0,0,.594,1.4,2.62,2.62,0,0,0,1.782.547,4.542,4.542,0,0,0,2.281-.594,3.675,3.675,0,0,0,1.5-1.45,4.928,4.928,0,0,0,.452-2.21V29.661Z" transform="translate(-33.113 -12.337)" fill="#50d1d9"/>
        <path id="Path_7" data-name="Path 7" d="M155.286,19.611h6.82v3.113a10.349,10.349,0,0,1,3.089-2.733,8.1,8.1,0,0,1,3.8-.808,6.215,6.215,0,0,1,4.753,1.806c1.141,1.212,1.711,3.065,1.711,5.584V38.717h-7.367v-10.5a3.794,3.794,0,0,0-.665-2.543,2.384,2.384,0,0,0-1.877-.737,2.682,2.682,0,0,0-2.162,1,5.877,5.877,0,0,0-.832,3.612v9.173h-7.319V19.611Z" transform="translate(-30.458 -12.34)" fill="#50d1d9"/>
        <path id="Path_8" data-name="Path 8" d="M190,12.962v7.272h4.04V25.6H190v6.772a3.489,3.489,0,0,0,.238,1.616,1.354,1.354,0,0,0,1.259.618,8.122,8.122,0,0,0,2.257-.475L194.3,39.2a23.208,23.208,0,0,1-5.062.594,9.144,9.144,0,0,1-4.04-.689,4.458,4.458,0,0,1-1.925-2.139,12.754,12.754,0,0,1-.618-4.634V25.6h-2.709v-5.37h2.709V16.74Z" transform="translate(-27.987 -12.962)" fill="#50d1d9"/>
      </g>
      <g id="Group_2" data-name="Group 2">
        <path id="Path_9" data-name="Path 9" d="M27.328,19.767h13l-2.709,5.846H27.328Z" transform="translate(2.733 -7.291)" fill="#50d1d9" fill-rule="evenodd"/>
        <path id="Path_10" data-name="Path 10" d="M2.044,14.474H14.115a2.044,2.044,0,1,1,0,4.087H2.044a2.044,2.044,0,0,1,0-4.087Z" transform="translate(0 -7.82)" fill="#60bcc1" fill-rule="evenodd"/>
        <path id="Path_11" data-name="Path 11" d="M5.37,8.425H25.141a2.044,2.044,0,0,1,0,4.087H5.37a2.044,2.044,0,1,1,0-4.087Z" transform="translate(0.333 -8.425)" fill-rule="evenodd" fill="url(#linear-gradient)"/>
        <path id="Path_12" data-name="Path 12" d="M18.44,14.474h0a2.044,2.044,0,1,1,0,4.087h0a2.044,2.044,0,0,1,0-4.087Z" transform="translate(1.64 -7.82)" fill="#60bcc1" fill-rule="evenodd"/>
        <path id="Path_13" data-name="Path 13" d="M18.44,32.1h0a2.044,2.044,0,0,1,0,4.087h0A2.044,2.044,0,0,1,16.4,34.145,2.075,2.075,0,0,1,18.44,32.1Z" transform="translate(1.64 -6.057)" fill="#60bcc1" fill-rule="evenodd"/>
        <path id="Path_14" data-name="Path 14" d="M3.513,26.939h0a2.044,2.044,0,0,1,0,4.087h0a2.044,2.044,0,0,1,0-4.087Z" transform="translate(0.147 -6.574)" fill="#60bcc1" fill-rule="evenodd"/>
        <path id="Path_15" data-name="Path 15" d="M6.364,20.631h0a2.044,2.044,0,1,1,0,4.087h0a2.044,2.044,0,1,1,0-4.087Z" transform="translate(0.432 -7.205)" fill="#60bcc1" fill-rule="evenodd"/>
        <path id="Path_16" data-name="Path 16" d="M8.2,26.939H22.862a2.044,2.044,0,1,1,0,4.087H8.2a2.044,2.044,0,0,1,0-4.087Z" transform="translate(0.616 -6.574)" fill-rule="evenodd" fill="url(#linear-gradient-2)"/>
        <path id="Path_17" data-name="Path 17" d="M11.787,20.76H24.5v4.063H11.787a2.032,2.032,0,1,1,0-4.063Z" transform="translate(0.974 -7.192)" fill-rule="evenodd" fill="url(#linear-gradient-3)"/>
        <path id="Path_18" data-name="Path 18" d="M38.881,22.769l-1.188,2.5-11.359.048Z" transform="translate(2.633 -6.991)" fill="#60bcc1" fill-rule="evenodd"/>
        <path id="Path_19" data-name="Path 19" d="M29.466,8.425H41.752L39.589,14.39H29.229Z" transform="translate(2.923 -8.425)" fill="#50d1d9" fill-rule="evenodd"/>
        <path id="Path_20" data-name="Path 20" d="M23.847,8.425h7.176L27.483,41.931H20.307Zm6.226,3.018a2.044,2.044,0,1,0-4.087,0v.143a2.044,2.044,0,1,0,4.087,0ZM25.535,21.994h0a2.044,2.044,0,1,1,0,4.087h0a2.044,2.044,0,0,1,0-4.087Z" transform="translate(2.031 -8.425)" fill="#50d1d9" fill-rule="evenodd"/>
        <path id="Path_21" data-name="Path 21" d="M40.562,11.666l-.879,2.424H28.3l12.262-2.424Z" transform="translate(2.83 -8.101)" fill="#60bcc1" fill-rule="evenodd"/>
      </g>
    </g>
  </g>
</svg>
